#!OML:ASF E:\Mandelcareful walks\Project 1\Capture day 1\Session 1\Subject1.ASF
:FULLY-SPECIFIED
:DEGREES
388
root -25.0912 11.9814 2.68349 171.192 70.2174 154.647
lowerback 44.7945 -2.40453 2.89926
upperback 9.6402 -0.183665 -3.70235
thorax -10.1201 0.74984 -5.56837
lowerneck -31.1492 6.23817 1.4297
upperneck 10.093 11.5967 -16.5874
head 9.42917 3.87931 -4.0523
rclavicle -7.95139e-016 6.2816e-014
rhumerus 11.1971 13.4812 -62.2903
rradius 49.1121
rwrist -17.5341
rhand -9.64404 -31.5658
rfingers 7.12502
rthumb 16.3264 659.101
lclavicle -7.95139e-016 6.2816e-014
lhumerus 29.3847 -28.9589 20.9243
lradius 58.0768
lwrist 11.6135
lhand -21.0946 -21.1674
lfingers 7.12502
lthumb 5.28301 8.7467
rfemur -74.7184 -39.3546 17.9997
rtibia 110.351
rfoot -32.2472 4.91335
rtoes -11.2076
lfemur -75.7375 22.581 -25.5113
ltibia 98.5844
lfoot -26.5407 -0.407559
ltoes -19.945
389
root -25.048 12.1184 2.71165 170.035 70.6847 153.118
lowerback 43.7922 -2.24593 2.76496
upperback 9.6399 -0.161185 -3.85885
thorax -9.84383 0.741194 -5.6667
lowerneck -31.0072 5.85885 1.15153
upperneck 10.1964 11.137 -16.2952
head 9.35712 3.68049 -3.994
rclavicle -5.64548e-014 -2.06736e-014
rhumerus 9.24151 14.3315 -62.5653
rradius 50.5846
rwrist -18.1621
rhand -9.18014 -31.6512
rfingers 7.12502
rthumb 16.773 659.053
lclavicle -5.64548e-014 -2.06736e-014
lhumerus 26.9191 -29.5354 22.2645
lradius 58.8452
lwrist 11.7447
lhand -21.2742 -20.986
lfingers 7.12502
lthumb 5.10956 8.93235
rfemur -74.0409 -38.0565 17.7168
rtibia 108.849
rfoot -31.9352 4.42628
rtoes -11.3224
lfemur -75.1753 22.7972 -25.946
ltibia 97.4188
lfoot -25.908 0.351072
ltoes -20.1246
390
root -25.006 12.2593 2.73989 168.85 71.0407 151.866
lowerback 43.2122 -2.22373 2.72252
upperback 9.58475 -0.229438 -3.96555
thorax -9.75111 0.69265 -5.72512
lowerneck -30.6817 5.38701 0.671485
upperneck 10.235 10.5686 -15.8075
head 9.19908 3.4542 -3.85318
rclavicle 7.95139e-015 3.65764e-014
rhumerus 7.37484 15.0535 -63.0355
rradius 51.7027
rwrist -18.3206
rhand -8.94801 -31.778
rfingers 7.12502
rthumb 16.9965 658.946
lclavicle 7.95139e-015 3.65764e-014
lhumerus 24.1162 -30.0581 23.9883
lradius 59.4811
lwrist 11.885
lhand -20.1995 -20.4154
lfingers 7.12502
lthumb 6.14717 9.47537
rfemur -72.7748 -36.7863 17.2775
rtibia 107.28
rfoot -31.7469 3.97522
rtoes -10.4158
lfemur -74.3936 22.974 -26.2235
ltibia 96.3706
lfoot -24.8961 1.27368
ltoes -20.2956
391
root -24.9656 12.3959 2.76711 167.706 71.3145 150.714
lowerback 42.7473 -2.31946 2.68584
upperback 9.55396 -0.421316 -4.06667
thorax -9.67409 0.59341 -5.72822
lowerneck -30.538 4.80437 -0.134844
upperneck 10.2147 9.90229 -14.9699
head 9.00342 3.20044 -3.55304
rclavicle 3.97569e-015 4.45278e-014
rhumerus 5.98226 15.9394 -63.4389
rradius 52.4566
rwrist -18.5259
rhand -9.02867 -31.4641
rfingers 7.12502
rthumb 16.9188 659.253
lclavicle 3.97569e-015 4.45278e-014
lhumerus 20.9435 -30.5637 25.8875
lradius 59.9573
lwrist 12.7894
lhand -20.2988 -20.6104
lfingers 7.12502
lthumb 6.05139 9.28315
rfemur -71.3282 -35.2556 16.7566
rtibia 105.632
rfoot -31.8828 3.34181
rtoes -8.68096
lfemur -73.7711 23.0412 -26.4197
ltibia 95.5053
lfoot -23.4233 2.25883
ltoes -21.0136
392
root -24.9247 12.547 2.78622 166.002 71.5705 149.153
lowerback 42.5126 -2.43669 2.49292
upperback 9.58452 -0.670452 -4.14162
thorax -9.59644 0.480859 -5.59842
lowerneck -30.5801 4.18689 -1.07987
upperneck 10.1306 9.24086 -14.0686
head 8.8178 2.94852 -3.20608
rclavicle -9.54166e-015 3.22031e-014
rhumerus 4.95075 16.9376 -63.715
rradius 53.0543
rwrist -18.9443
rhand -8.96782 -31.507
rfingers 7.12502
rthumb 16.9774 659.215
lclavicle -9.54166e-015 3.22031e-014
lhumerus 18.0996 -30.7254 28.0593
lradius 59.9304
lwrist 12.935
lhand -21.5705 -20.5362
lfingers 7.12502
lthumb 4.82347 9.38885
rfemur -69.7463 -34.3538 16.2257
rtibia 103.793
rfoot -32.0837 2.8099
rtoes -8.01322
lfemur -72.9478 22.9765 -26.5215
ltibia 94.7066
lfoot -21.6741 2.90415
ltoes -21.1304
393
root -24.8826 12.6961 2.80226 164.118 71.7088 147.448
lowerback 42.3408 -2.5473 2.26274
upperback 9.54142 -0.93108 -4.1862
thorax -9.61833 0.356401 -5.41365
lowerneck -30.1952 3.48762 -1.92783
upperneck 9.78452 8.40385 -13.2978
head 8.49155 2.63992 -2.94644
rclavicle -2.94201e-014 -1.19271e-014
rhumerus 3.68714 17.7958 -64.1573
rradius 53.563
rwrist -19.3979
rhand -9.60524 -31.3469
rfingers 7.12502
rthumb 16.3638 659.323
lclavicle -2.94201e-014 -1.19271e-014
lhumerus 14.859 -30.8662 30.561
lradius 59.9845
lwrist 12.7713
lhand -22.5997 -21.0925
lfingers 7.12502
lthumb 3.82965 8.85279
rfemur -68.0567 -33.5141 15.5489
rtibia 101.956
rfoot -32.3747 2.05567
rtoes -8.43517
lfemur -72.1548 22.7934 -26.5059
ltibia 94.0426
lfoot -19.5762 3.22633
ltoes -20.5455
394
root -24.8416 12.849 2.82183 162.491 71.966 145.908
lowerback 42.1133 -2.56562 2.18747
upperback 9.4021 -1.05739 -4.38004
thorax -9.72875 0.282129 -5.53202
lowerneck -29.7013 2.71987 -2.46816
upperneck 9.98013 7.29346 -12.0976
head 8.31853 2.20837 -2.63414
rclavicle -1.35174e-014 -1.15295e-014
rhumerus 2.1062 18.2084 -65.0744
rradius 53.8767
rwrist -19.7092
rhand -12.2163 -29.7217
rfingers 7.12502
rthumb 13.8486 660.759
lclavicle -1.35174e-014 -1.15295e-014
lhumerus 12.2469 -31.268 32.2236
lradius 60.0163
lwrist 12.774
lhand -22.4855 -21.2188
lfingers 7.12502
lthumb 3.93996 8.72455
rfemur -66.5064 -32.4491 15.0682
rtibia 100.096
rfoot -32.6552 1.15819
rtoes -9.22989
lfemur -71.6992 22.888 -26.4369
ltibia 93.4448
lfoot -16.8641 3.61969
ltoes -21.3725
395
root -24.7997 13.0025 2.83683 161.259 72.3275 144.681
lowerback 41.773 -2.60043 2.2563
upperback 9.24142 -1.16287 -4.61497
thorax -9.83287 0.210517 -5.7794
lowerneck -28.7444 1.98548 -2.65278
upperneck 9.40042 6.08125 -11.363
head 7.86024 1.76313 -2.53899
rclavicle 6.59965e-014 -5.00937e-014
rhumerus 0.729784 18.5312 -66.1312
rradius 53.9285
rwrist -19.6245
rhand -11.2999 -31.1625
rfingers 7.12502
rthumb 14.7316 659.381
lclavicle 6.59965e-014 -5.00937e-014
lhumerus 9.69651 -31.6022 33.6604
lradius 60.0551
lwrist 12.6265
lhand -21.8494 -21.1515
lfingers 7.12502
lthumb 4.55417 8.77953
rfemur -65.1109 -31.3457 14.7935
rtibia 98.271
rfoot -32.8277 0.290808
rtoes -9.89863
lfemur -71.5471 23.0937 -26.2814
ltibia 92.9006
lfoot -14.0132 3.9581
ltoes -22.2421
396
root -24.7594 13.1406 2.84521 160.318 72.5856 143.64
lowerback 41.2917 -2.64027 2.33495
upperback 9.1257 -1.24928 -4.67888
thorax -9.83091 0.146373 -5.85165
lowerneck -27.9411 1.06339 -3.35595
upperneck 8.76383 4.78693 -10.3589
head 7.39801 1.27863 -2.2735
rclavicle 7.95139e-016 1.31198e-014
rhumerus -0.452426 18.7658 -66.8385
rradius 53.9428
rwrist -19.371
rhand -12.2027 -30.7276
rfingers 7.12502
rthumb 13.8617 659.754
lclavicle 7.95139e-016 1.31198e-014
lhumerus 7.19242 -31.6945 35.4255
lradius 59.9583
lwrist 12.3484
lhand -21.3821 -21.3053
lfingers 7.12502
lthumb 5.00542 8.61554
rfemur -63.9774 -30.3868 14.5504
rtibia 96.5945
rfoot -32.7531 -0.461329
rtoes -10.1219
lfemur -71.5539 23.0039 -26.0726
ltibia 92.3208
lfoot -11.8537 4.41482
ltoes -22.1989
397
root -24.719 13.2643 2.85247 159.758 72.7433 142.899
lowerback 40.7351 -2.98659 1.48761
upperback 9.37111 -1.92471 -3.96145
thorax -9.37558 -0.155755 -4.33431
lowerneck -29.964 0.117722 -6.68686
upperneck 8.85277 4.67318 -8.40027
head 7.58323 1.26022 -1.12358
rclavicle -1.27222e-014 -2.62396e-014
rhumerus 0.355238 20.9099 -66.0094
rradius 54.2182
rwrist -19.737
rhand -11.0473 -32.3349
rfingers 7.12502
rthumb 14.9749 658.227
lclavicle -1.27222e-014 -2.62396e-014
lhumerus 3.10485 -29.1654 38.9528
lradius 59.6363
lwrist 11.4452
lhand -21.0928 -21.3317
lfingers 7.12502
lthumb 5.28473 8.58245
rfemur -63.0598 -29.5052 14.3918
rtibia 95.0181
rfoot -32.6554 -1.07089
rtoes -10.0747
lfemur -71.676 22.7683 -25.937
ltibia 91.488
lfoot -10.7058 5.37808
ltoes -22.8507
398
root -24.6751 13.3847 2.8566 159.517 72.8575 142.421
lowerback 40.2156 -2.95459 1.92577
upperback 9.234 -1.80753 -4.25587
thorax -9.3894 -0.126273 -4.93274
lowerneck -29.1168 -0.561259 -6.42076
upperneck 8.2832 3.35895 -7.59805
head 7.21788 0.76864 -1.07827
rclavicle -1.98785e-014 -8.15017e-014
rhumerus -1.66369 19.7517 -67.3479
rradius 54.7835
rwrist -19.7082
rhand -11.4433 -33.279
rfingers 7.12502
rthumb 14.5934 657.254
lclavicle -1.98785e-014 -8.15017e-014
lhumerus 1.75046 -29.5921 39.9272
lradius 59.5922
lwrist 11.0965
lhand -21.2645 -21.4282
lfingers 7.12502
lthumb 5.11901 8.48998
rfemur -62.2452 -28.7905 14.3492
rtibia 93.5205
rfoot -32.6611 -1.60111
rtoes -10.2566
lfemur -71.802 22.5285 -25.9327
ltibia 90.1754
lfoot -10.4537 6.54871
ltoes -23.7938
399
root -24.6351 13.5034 2.85534 159.53 72.6849 142.216
lowerback 39.8233 -3.0432 2.29011
upperback 9.02828 -1.85445 -4.40435
thorax -9.52127 -0.177196 -5.26749
lowerneck -28.0274 -1.17646 -6.21125
upperneck 7.61591 2.15628 -6.89119
head 6.79977 0.317422 -1.02969
rclavicle 2.38542e-015 -1.59028e-014
rhumerus -3.06749 18.6704 -68.5462
rradius 54.8171
rwrist -19.7578
rhand -12.491 -32.7047
rfingers 7.12502
rthumb 13.5838 657.758
lclavicle 2.38542e-015 -1.59028e-014
lhumerus 0.162502 -29.9763 41.1909
lradius 59.5951
lwrist 11.3742
lhand -21.4027 -21.504
lfingers 7.12502
lthumb 4.98553 8.41732
rfemur -61.4112 -28.5399 14.2226
rtibia 92.0444
rfoot -32.5499 -2.13919
rtoes -10.9905
lfemur -71.7099 21.9413 -25.9927
ltibia 88.1709
lfoot -10.872 7.33345
ltoes -24.1325
400
root -24.6048 13.5814 2.84552 160.21 72.1424 142.478
lowerback 39.2528 -3.45032 2.27251
upperback 9.07594 -2.34941 -4.09176
thorax -9.30765 -0.413235 -4.71458
lowerneck -29.0147 -1.92725 -7.35857
upperneck 7.64901 1.5338 -5.82347
head 6.92015 0.0729167 -0.590261
rclavicle -5.725e-014 -1.55052e-014
rhumerus -3.4654 18.7878 -68.4997
rradius 55.2016
rwrist -20.2014
rhand -12.9117 -31.2167
rfingers 7.12502
rthumb 13.1783 659.22
lclavicle -5.725e-014 -1.55052e-014
lhumerus -1.90813 -28.8739 43.3146
lradius 59.3649
lwrist 11.8719
lhand -21.3302 -21.0791
lfingers 7.12502
lthumb 5.05553 8.84064
rfemur -61.0231 -28.7769 14.0782
rtibia 90.8053
rfoot -32.3588 -2.4224
rtoes -11.1407
lfemur -71.8069 20.2384 -25.6928
ltibia 85.6929
lfoot -11.7153 7.89293
ltoes -23.1562
